<svg xmlns="http://www.w3.org/2000/svg" width="14" height="14" viewBox="0 0 14 14">
    <path fill="none" d="M0 0H14V14H0z"/>
    <path fill="#ff3b3b" d="M1574.315-1222.424l-2.611-2.59-2.612 2.59a.5.5 0 0 1-.707 0l-.034-.034a.493.493 0 0 1 0-.7l2.641-2.62-2.641-2.619a.5.5 0 0 1 0-.7l.034-.033a.5.5 0 0 1 .707 0l2.612 2.589 2.611-2.59a.5.5 0 0 1 .707 0l.034.034a.493.493 0 0 1 0 .7l-2.642 2.619 2.642 2.62a.493.493 0 0 1 0 .7l-.034.034a.5.5 0 0 1-.354.145.5.5 0 0 1-.353-.145z" transform="translate(-1564.205 1233.279)"/>
</svg>
