<svg xmlns="http://www.w3.org/2000/svg" width="14" height="14" viewBox="0 0 14 14">
    <g>
        <path fill="none" d="M0 0H14V14H0z" transform="translate(-222 -12.5) translate(222 12.5)"/>
        <path fill="#2a72e5" d="M1553.35-1273.253l-3-2.974a.494.494 0 0 1 0-.7l.034-.033a.5.5 0 0 1 .707 0l2.608 2.587 6.23-6.272a.5.5 0 0 1 .707 0l.019.019a.511.511 0 0 1 .015.716l-6.559 6.6-.022.023-.034.033a.5.5 0 0 1-.354.146.5.5 0 0 1-.351-.145z" transform="translate(-222 -12.5) translate(-1326.204 1296.292)"/>
    </g>
</svg>
